<?xml version="1.0" encoding="UTF-8"?>
<svg width="422px" height="29px" viewBox="0 0 422 29" version="1.1" xmlns="http://www.w3.org/2000/svg" xmlns:xlink="http://www.w3.org/1999/xlink">
    <!-- Generator: Sketch 61.2 (89653) - https://sketch.com -->
    <title>Group</title>
    <desc>Created with Sketch.</desc>
    <g id="Symbols" stroke="none" stroke-width="1" fill="none" fill-rule="evenodd">
        <g id="Logos/Primary-on-White" transform="translate(-18.000000, -18.000000)" fill-rule="nonzero">
            <g id="Group" transform="translate(18.508000, 18.336000)">
                <path d="M10.792,27.664 C12.7933333,27.664 14.7186667,27.398 16.568,26.866 C18.4173333,26.334 20.0513333,25.517 21.47,24.415 C22.8886667,23.313 24.0223333,21.9006667 24.871,20.178 C25.7196667,18.4553333 26.144,16.416 26.144,14.06 C26.144,11.476 25.7006667,9.33533333 24.814,7.638 C23.9273333,5.94066667 22.743,4.579 21.261,3.553 C19.779,2.527 18.069,1.805 16.131,1.387 C14.193,0.969 12.16,0.76 10.032,0.76 L10.032,0.76 L1.42108547e-14,0.76 L1.42108547e-14,27.664 L10.792,27.664 Z M10.374,19.912 L8.702,19.912 L8.702,8.436 L10.716,8.436 C12.616,8.436 14.136,8.92366667 15.276,9.899 C16.416,10.8743333 16.986,12.236 16.986,13.984 C16.986,16.0866667 16.416,17.6003333 15.276,18.525 C14.136,19.4496667 12.502,19.912 10.374,19.912 L10.374,19.912 Z M38.684,27.664 L38.684,18.05 L38.95,18.05 L44.118,27.664 L54.53,27.664 L47.69,16.758 C49.21,16.074 50.3753333,15.105 51.186,13.851 C51.9966667,12.597 52.402,11.1466667 52.402,9.5 C52.402,7.80266667 52.0853333,6.39033333 51.452,5.263 C50.8186667,4.13566667 49.989,3.23633333 48.963,2.565 C47.937,1.89366667 46.7716667,1.425 45.467,1.159 C44.1623333,0.893 42.8513333,0.76 41.534,0.76 L41.534,0.76 L29.944,0.76 L29.944,27.664 L38.684,27.664 Z M40.394,12.122 L38.608,12.122 L38.608,7.79 L40.774,7.79 C41.0526667,7.79 41.3566667,7.809 41.686,7.847 C42.0153333,7.885 42.3193333,7.97366667 42.598,8.113 C42.8766667,8.25233333 43.1046667,8.46133333 43.282,8.74 C43.4593333,9.01866667 43.548,9.39866667 43.548,9.88 C43.548,10.3613333 43.4403333,10.7476667 43.225,11.039 C43.0096667,11.3303333 42.7436667,11.5583333 42.427,11.723 C42.1103333,11.8876667 41.7683333,11.9953333 41.401,12.046 C41.0336667,12.0966667 40.698,12.122 40.394,12.122 L40.394,12.122 Z M76.228,27.664 L76.228,20.14 L65.588,20.14 L65.588,17.632 L74.974,17.632 L74.974,10.602 L65.588,10.602 L65.588,8.284 L75.582,8.284 L75.582,0.76 L57.076,0.76 L57.076,27.664 L76.228,27.664 Z M86.45,27.664 L87.78,23.712 L96.33,23.712 L97.736,27.664 L107.578,27.664 L97.09,0.76 L87.476,0.76 L76.874,27.664 L86.45,27.664 Z M94.316,16.796 L89.946,16.796 L92.15,10.146 L94.316,16.796 Z M117.914,27.664 L117.496,12.464 L117.686,12.464 L122.626,27.664 L129.01,27.664 L134.026,12.502 L134.254,12.54 L133.988,27.664 L142.766,27.664 L142.766,0.76 L130.568,0.76 L126.35,15.238 L126.16,15.238 L121.296,0.76 L109.478,0.76 L109.478,27.664 L117.914,27.664 Z M169.48,27.664 C170.797333,27.664 172.083,27.531 173.337,27.265 C174.591,26.999 175.705667,26.5556667 176.681,25.935 C177.656333,25.3143333 178.441667,24.5036667 179.037,23.503 C179.632333,22.5023333 179.93,21.2673333 179.93,19.798 C179.93,18.962 179.790667,18.202 179.512,17.518 C179.233333,16.834 178.853333,16.2323333 178.372,15.713 C177.890667,15.1936667 177.346,14.763 176.738,14.421 C176.13,14.079 175.509333,13.832 174.876,13.68 L174.876,13.68 L174.876,13.566 C176.066667,13.11 177.023,12.4133333 177.745,11.476 C178.467,10.5386667 178.828,9.348 178.828,7.904 C178.828,6.35866667 178.486,5.111 177.802,4.161 C177.118,3.211 176.256667,2.489 175.218,1.995 C174.179333,1.501 173.045667,1.17166667 171.817,1.007 C170.588333,0.842333333 169.429333,0.76 168.34,0.76 L168.34,0.76 L157.282,0.76 L157.282,27.664 L169.48,27.664 Z M168.15,11.096 L165.718,11.096 L165.718,7.79 L167.96,7.79 C168.669333,7.79 169.239333,7.91666667 169.67,8.17 C170.100667,8.42333333 170.316,8.80333333 170.316,9.31 C170.316,9.918 170.113333,10.3676667 169.708,10.659 C169.302667,10.9503333 168.783333,11.096 168.15,11.096 L168.15,11.096 Z M168.416,20.558 L165.718,20.558 L165.718,16.91 L168.036,16.91 C168.314667,16.91 168.612333,16.9353333 168.929,16.986 C169.245667,17.0366667 169.543333,17.1316667 169.822,17.271 C170.100667,17.4103333 170.335,17.594 170.525,17.822 C170.715,18.05 170.81,18.3413333 170.81,18.696 C170.81,19.304 170.588333,19.7663333 170.145,20.083 C169.701667,20.3996667 169.125333,20.558 168.416,20.558 L168.416,20.558 Z M192.736,27.664 L192.736,0.76 L183.616,0.76 L183.616,27.664 L192.736,27.664 Z M211.432,28.348 C212.445333,28.348 213.458667,28.2783333 214.472,28.139 C215.485333,27.9996667 216.454333,27.816 217.379,27.588 C218.303667,27.36 219.177667,27.0876667 220.001,26.771 C220.824333,26.4543333 221.552667,26.106 222.186,25.726 L222.186,25.726 L222.186,11.02 L209.836,11.02 L209.836,18.126 L214.168,18.126 L214.168,20.178 C213.94,20.3046667 213.623333,20.3996667 213.218,20.463 C212.812667,20.5263333 212.42,20.558 212.04,20.558 C209.886667,20.558 208.322333,19.969 207.347,18.791 C206.371667,17.613 205.884,16.0866667 205.884,14.212 C205.884,13.2746667 206.048667,12.426 206.378,11.666 C206.707333,10.906 207.138,10.2536667 207.67,9.709 C208.202,9.16433333 208.816333,8.74633333 209.513,8.455 C210.209667,8.16366667 210.925333,8.018 211.66,8.018 C212.774667,8.018 213.712,8.21433333 214.472,8.607 C215.232,8.99966667 215.890667,9.52533333 216.448,10.184 L216.448,10.184 L221.73,3.838 C220.539333,2.64733333 219.000333,1.71 217.113,1.026 C215.225667,0.342 213.230667,-2.13162821e-14 211.128,-2.13162821e-14 C209.101333,-2.13162821e-14 207.201333,0.335666667 205.428,1.007 C203.654667,1.67833333 202.109333,2.63466667 200.792,3.876 C199.474667,5.11733333 198.436,6.612 197.676,8.36 C196.916,10.108 196.536,12.0586667 196.536,14.212 C196.536,16.3653333 196.916,18.316 197.676,20.064 C198.436,21.812 199.481,23.3003333 200.811,24.529 C202.141,25.7576667 203.711667,26.7013333 205.523,27.36 C207.334333,28.0186667 209.304,28.348 211.432,28.348 Z" id="DREAMBIG" fill="#49A196"></path>
                <path d="M244.892,27.664 L244.892,18.544 L253.062,18.544 L253.062,11.172 L244.854,11.172 L244.854,8.322 L254.164,8.322 L254.164,0.76 L236,0.76 L236,27.664 L244.892,27.664 Z M267.198,27.664 L267.198,0.76 L258.078,0.76 L258.078,27.664 L267.198,27.664 Z M285.894,28.348 C286.907333,28.348 287.920667,28.2783333 288.934,28.139 C289.947333,27.9996667 290.916333,27.816 291.841,27.588 C292.765667,27.36 293.639667,27.0876667 294.463,26.771 C295.286333,26.4543333 296.014667,26.106 296.648,25.726 L296.648,25.726 L296.648,11.02 L284.298,11.02 L284.298,18.126 L288.63,18.126 L288.63,20.178 C288.402,20.3046667 288.085333,20.3996667 287.68,20.463 C287.274667,20.5263333 286.882,20.558 286.502,20.558 C284.348667,20.558 282.784333,19.969 281.809,18.791 C280.833667,17.613 280.346,16.0866667 280.346,14.212 C280.346,13.2746667 280.510667,12.426 280.84,11.666 C281.169333,10.906 281.6,10.2536667 282.132,9.709 C282.664,9.16433333 283.278333,8.74633333 283.975,8.455 C284.671667,8.16366667 285.387333,8.018 286.122,8.018 C287.236667,8.018 288.174,8.21433333 288.934,8.607 C289.694,8.99966667 290.352667,9.52533333 290.91,10.184 L290.91,10.184 L296.192,3.838 C295.001333,2.64733333 293.462333,1.71 291.575,1.026 C289.687667,0.342 287.692667,-1.0658141e-14 285.59,-1.0658141e-14 C283.563333,-1.0658141e-14 281.663333,0.335666667 279.89,1.007 C278.116667,1.67833333 276.571333,2.63466667 275.254,3.876 C273.936667,5.11733333 272.898,6.612 272.138,8.36 C271.378,10.108 270.998,12.0586667 270.998,14.212 C270.998,16.3653333 271.378,18.316 272.138,20.064 C272.898,21.812 273.943,23.3003333 275.273,24.529 C276.603,25.7576667 278.173667,26.7013333 279.985,27.36 C281.796333,28.0186667 283.766,28.348 285.894,28.348 Z M310.214,27.664 L310.214,17.442 L317.586,17.442 L317.586,27.664 L326.63,27.664 L326.63,0.76 L317.548,0.76 L317.548,9.88 L310.176,9.88 L310.176,0.76 L301.17,0.76 L301.17,27.664 L310.214,27.664 Z M345.06,27.664 L345.06,8.398 L351.672,8.398 L351.672,0.76 L329.404,0.76 L329.404,8.398 L336.016,8.398 L336.016,27.664 L345.06,27.664 Z M376.752,28.424 C378.88,28.424 380.856,28.082 382.68,27.398 C384.504,26.714 386.087333,25.745 387.43,24.491 C388.772667,23.237 389.824,21.7233333 390.584,19.95 C391.344,18.1766667 391.724,16.2133333 391.724,14.06 C391.724,11.9066667 391.344,9.96233333 390.584,8.227 C389.824,6.49166667 388.772667,5.016 387.43,3.8 C386.087333,2.584 384.504,1.64666667 382.68,0.988 C380.856,0.329333333 378.88,-1.0658141e-14 376.752,-1.0658141e-14 C374.624,-1.0658141e-14 372.648,0.329333333 370.824,0.988 C369,1.64666667 367.423,2.584 366.093,3.8 C364.763,5.016 363.718,6.49166667 362.958,8.227 C362.198,9.96233333 361.818,11.9066667 361.818,14.06 C361.818,16.2133333 362.198,18.1766667 362.958,19.95 C363.718,21.7233333 364.763,23.237 366.093,24.491 C367.423,25.745 369,26.714 370.824,27.398 C372.648,28.082 374.624,28.424 376.752,28.424 Z M376.752,20.064 C375.992,20.064 375.282667,19.9183333 374.624,19.627 C373.965333,19.3356667 373.401667,18.924 372.933,18.392 C372.464333,17.86 372.097,17.2266667 371.831,16.492 C371.565,15.7573333 371.432,14.9466667 371.432,14.06 C371.432,13.1986667 371.565,12.407 371.831,11.685 C372.097,10.963 372.464333,10.355 372.933,9.861 C373.401667,9.367 373.965333,8.98066667 374.624,8.702 C375.282667,8.42333333 375.992,8.284 376.752,8.284 C377.512,8.284 378.215,8.42333333 378.861,8.702 C379.507,8.98066667 380.070667,9.367 380.552,9.861 C381.033333,10.355 381.407,10.963 381.673,11.685 C381.939,12.407 382.072,13.1986667 382.072,14.06 C382.072,14.9466667 381.939,15.7573333 381.673,16.492 C381.407,17.2266667 381.033333,17.86 380.552,18.392 C380.070667,18.924 379.507,19.3356667 378.861,19.627 C378.215,19.9183333 377.512,20.064 376.752,20.064 Z M404.112,27.664 L403.732,14.82 L403.884,14.82 L411.332,27.664 L420.566,27.664 L420.566,0.76 L411.978,0.76 L412.358,14.402 L412.206,14.402 L404.53,0.76 L395.524,0.76 L395.524,27.664 L404.112,27.664 Z" id="FIGHTON" fill="#1A1B33"></path>
            </g>
        </g>
    </g>
</svg>